<?xml version="1.0" encoding="UTF-8" standalone="no"?>
<!DOCTYPE svg PUBLIC "-//W3C//DTD SVG 1.1//EN" "http://www.w3.org/Graphics/SVG/1.1/DTD/svg11.dtd">
<svg width="100%" height="100%" viewBox="0 0 227 163" version="1.1" xmlns="http://www.w3.org/2000/svg" xmlns:xlink="http://www.w3.org/1999/xlink" xml:space="preserve" xmlns:serif="http://www.serif.com/" style="fill-rule:evenodd;clip-rule:evenodd;stroke-linejoin:round;stroke-miterlimit:1.5;">
    <g transform="matrix(1,0,0,1,0,-4)">
        <g id="Artboard1" transform="matrix(0.991251,0,0,0.936416,-248.211,-106.58)">
            <rect x="250.402" y="119" width="228.598" height="173" style="fill:none;"/>
            <clipPath id="_clip1">
                <rect x="250.402" y="119" width="228.598" height="173"/>
            </clipPath>
            <g clip-path="url(#_clip1)">
                <g transform="matrix(1.00883,0,0,-0.950604,-34.6909,329.102)">
                    <path d="M252,123.374L303,123.374C377.945,124.166 404.932,205.039 465.026,204.916C509.569,204.824 527.598,204.759 527.598,204.759" style="fill:none;stroke:rgb(254,173,0);stroke-width:28.52px;"/>
                </g>
                <g transform="matrix(1.00883,0,0,-1.05534,-2.81371,422.714)">
                    <path d="M250.402,259.13L300,259C389.968,258.1 355.195,152.834 446.19,151.81C516.181,151.022 518,152.81 518,152.81" style="fill:none;stroke:rgb(0,107,194);stroke-width:56.33px;"/>
                </g>
                <g transform="matrix(1.00883,0,0,-0.950604,-3.41733,381.869)">
                    <path d="M251,120.017L284,120.017C365.945,120.809 382.932,202.518 453.026,203.504C497.565,204.132 564.598,203.636 564.598,203.636" style="fill:none;stroke:rgb(216,0,10);stroke-width:46.48px;"/>
                </g>
            </g>
        </g>
    </g>
</svg>
